<svg xmlns="http://www.w3.org/2000/svg" version="1.1" viewBox="82.8 83.8 356 346" fill="transparent" style="max-height: 500px" width="356" height="346">
<path transform="translate(0,0)" fill="" d="M0 0 C165 0 330 0 500 0 C500 165 500 330 500 500 C335 500 170 500 0 500 C0 335 0 170 0 0 Z"/>
<path transform="translate(333.375,135.4375)" fill="#270965" d="M0 0 C17.61837331 13.84648399 31.20466328 29.6938729 41.625 49.5625 C41.97046875 50.19027344 42.3159375 50.81804687 42.671875 51.46484375 C45.74346337 57.24179265 47.65107081 63.34213492 49.625 69.5625 C49.97175781 70.58472656 50.31851562 71.60695313 50.67578125 72.66015625 C51.46179748 75.06348984 52.13519078 77.41049416 52.6875 79.875 C52.84347656 80.55175781 52.99945313 81.22851562 53.16015625 81.92578125 C54.63586029 90.29637141 54.84150029 98.61035294 54.86523438 107.08935547 C54.87488528 109.16285188 54.90597498 111.23533081 54.9375 113.30859375 C55.01234964 122.76464488 53.86082099 131.36325881 51.625 140.5625 C51.43679688 141.34383301 51.24859375 142.12516602 51.0546875 142.93017578 C46.62161321 160.03474271 38.60954105 175.78541885 27.625 189.5625 C27.19461426 190.11099609 26.76422852 190.65949219 26.32080078 191.22460938 C10.99397816 210.61471645 -8.31591564 226.18206629 -31.9296875 234.12109375 C-42.10061459 237.59789026 -47.98263947 241.17737384 -54.84960938 249.76611328 C-57.91559087 253.37678739 -61.36763802 256.62654259 -64.75 259.9375 C-69.21052652 264.31173815 -73.46440232 268.68557703 -77.375 273.5625 C-80.69930247 272.98787378 -82.20938437 272.06076291 -84.44921875 269.5625 C-85.02510742 268.93085938 -85.60099609 268.29921875 -86.19433594 267.6484375 C-86.81083008 266.96007812 -87.42732422 266.27171875 -88.0625 265.5625 C-89.41397582 264.10287957 -90.76689261 262.6445923 -92.12109375 261.1875 C-94.23884198 258.8940434 -96.34664144 256.59413977 -98.43017578 254.26953125 C-108.08871638 243.53730637 -116.5269581 237.14409807 -130.16503906 232.37451172 C-139.66382665 228.88434739 -148.34299715 223.66518019 -156.375 217.5625 C-157.49455078 216.73105469 -157.49455078 216.73105469 -158.63671875 215.8828125 C-181.50371136 198.56296121 -200.35162363 173.73863343 -207.375 145.5625 C-207.74513504 144.26943085 -208.11925552 142.97748504 -208.5 141.6875 C-208.933125 140.140625 -208.933125 140.140625 -209.375 138.5625 C-209.725625 137.44875 -210.07625 136.335 -210.4375 135.1875 C-215.15747277 116.93693861 -213.33337483 95.79859498 -209.375 77.5625 C-209.12556641 76.20511719 -209.12556641 76.20511719 -208.87109375 74.8203125 C-207.77013982 69.08741726 -205.71904426 63.89432605 -203.375 58.5625 C-203.11477051 57.95374023 -202.85454102 57.34498047 -202.58642578 56.71777344 C-195.90963906 41.20528421 -187.17429823 27.70380687 -175.375 15.5625 C-174.7046875 14.8303125 -174.034375 14.098125 -173.34375 13.34375 C-128.32154131 -34.36635175 -51.90094643 -37.59965071 0 0 Z"/>
<path transform="translate(310,178)" fill="#FDFDFE" d="M0 0 C5.13547084 5.26714958 5.14779439 9.80734003 5.11352539 16.88964844 C5.11367142 17.68027176 5.11381744 18.47089508 5.1139679 19.28547668 C5.11327236 21.89347089 5.10549675 24.5013933 5.09765625 27.109375 C5.0957908 28.91969768 5.09436749 30.73002087 5.09336853 32.54034424 C5.08955339 37.30130409 5.07973165 42.06223337 5.06866455 46.82318115 C5.05842887 51.68289781 5.05386629 56.54261942 5.04882812 61.40234375 C5.0381085 70.93490926 5.0210441 80.46745208 5 90 C0.25341797 88.10205078 0.25341797 88.10205078 -2.02734375 87.18359375 C-14.56388796 82.28690675 -29.01832079 82.66153954 -41.48046875 87.671875 C-43.71081554 88.84756168 -45.62033257 90.10994759 -47.6574707 91.58300781 C-48.28442337 92.03508606 -48.91137604 92.48716431 -49.55732727 92.95294189 C-50.03340927 93.29847107 -50.50949127 93.64400024 -51 94 C-51.09284301 83.18599998 -51.16383758 72.37209541 -51.20724869 61.5577774 C-51.22808808 56.53577048 -51.25633898 51.51403705 -51.30175781 46.4921875 C-51.34534579 41.64219997 -51.36916453 36.79247486 -51.37950897 31.94230652 C-51.38687713 30.09559501 -51.4012654 28.24889722 -51.42292023 26.40229797 C-51.45212682 23.80760101 -51.45594887 21.21397656 -51.45410156 18.61914062 C-51.46848267 17.8624408 -51.48286377 17.10574097 -51.49768066 16.32611084 C-51.45536476 10.80225762 -50.00833957 6.64372049 -47 2 C-34.95545064 -9.53248903 -13.51211405 -8.89598459 0 0 Z"/>
<path transform="translate(241,176)" fill="#FDFDFD" d="M0 0 C3.23421218 2.59778402 6.13050496 5.26100991 8 9 C8.0932036 11.74629543 8.12577094 14.46703167 8.11352539 17.21337891 C8.11367142 18.0622316 8.11381744 18.91108429 8.1139679 19.78565979 C8.11326966 22.59931977 8.1054814 25.41291404 8.09765625 28.2265625 C8.09579175 30.17426518 8.094368 32.12196832 8.09336853 34.06967163 C8.08954583 39.20220224 8.07971765 44.33470467 8.06866455 49.46722412 C8.05844512 54.70210387 8.05386977 59.93698816 8.04882812 65.171875 C8.03809517 75.44792907 8.0210217 85.72396219 8 96 C7.38189957 95.58382416 6.76379913 95.16764832 6.12696838 94.73886108 C5.3162236 94.19516876 4.50547882 93.65147644 3.67016602 93.09130859 C2.86644058 92.55138275 2.06271515 92.01145691 1.2346344 91.45516968 C-8.7366157 84.96199979 -20.08183559 84.69790185 -31.515625 86.578125 C-36.62336339 87.76070482 -40.5206763 89.27577758 -45 92 C-45.66 92 -46.32 92 -47 92 C-47.06956183 81.41219451 -47.12284274 70.82444353 -47.15543652 60.23645592 C-47.17108123 55.3198272 -47.19229776 50.40335503 -47.22631836 45.48681641 C-47.2589543 40.74059132 -47.27686201 35.99451667 -47.28463173 31.24818802 C-47.29016762 29.4389166 -47.30097792 27.62965326 -47.31719017 25.82044601 C-47.33902083 23.28294949 -47.34196459 20.74607168 -47.34057617 18.20849609 C-47.351362 17.46330719 -47.36214783 16.71811829 -47.3732605 15.9503479 C-47.34033561 10.37603117 -46.15802329 6.19555413 -42.203125 2.171875 C-41.55859375 1.70265625 -40.9140625 1.2334375 -40.25 0.75 C-39.29867187 0.03070313 -39.29867187 0.03070313 -38.328125 -0.703125 C-27.76169215 -6.58912451 -10.34379432 -6.12111327 0 0 Z"/>
<path transform="translate(174,266)" fill="#07ECEF" d="M0 0 C3.3 0.33 6.6 0.66 10 1 C10.71614583 3.31119792 11.43229167 5.62239583 12.1484375 7.93359375 C12.80882227 10.17798016 12.80882227 10.17798016 15 11 C20.55014514 11.44759235 24.51690701 10.97806189 29.75 9.0625 C40.93392706 5.06417493 52.46729948 4.75590349 63.3125 9.875 C69.22381401 13.12740972 72.50809102 16.3484645 75.49609375 22.390625 C76.97565723 24.29091143 76.97565723 24.29091143 79.90234375 24.5546875 C83.13666522 24.28626852 83.13666522 24.28626852 85.1328125 21.8046875 C85.79023438 20.83789062 86.44765625 19.87109375 87.125 18.875 C92.50146614 11.88649459 98.36716878 8.21277559 107.01171875 6.3515625 C115.81595207 5.31577034 124.38536098 6.59817848 132.6875 9.625 C137.08113537 11.20158683 141.3629073 11.7169802 146 11 C149.13657296 9.40424812 149.13657296 9.40424812 149.44140625 7.08984375 C149.48136719 6.37957031 149.52132812 5.66929687 149.5625 4.9375 C149.706875 3.638125 149.85125 2.33875 150 1 C153.318428 -0.659214 156.39264976 0.42740472 160 1 C161 2 161 2 161.3125 5.5625 C161.24305632 10.39751629 159.72030081 14.03839687 157 18 C151.40331279 23.31685285 146.96925981 24.4277216 139.40625 24.3359375 C135.75367209 23.97570619 132.61978093 23.10982908 129.125 22 C120.59534595 19.3486363 110.27153339 17.92889205 101.80078125 21.68359375 C98.5403982 24.06699741 96.29226877 27.2678438 93.95703125 30.52734375 C91.29600443 33.88947943 88.7571199 36.44964597 84.60546875 37.75 C79.44169566 38.28389576 75.49918518 38.19231444 70.93359375 35.57421875 C67.71457153 32.95347945 65.42147123 29.63223988 62.91015625 26.3515625 C59.33257865 21.94726451 56.59695625 20.31176742 50.94140625 19.6328125 C43.16632202 19.33810474 36.76223635 20.77979128 29.390625 23.09375 C22.72854112 24.87439915 15.98735437 25.211596 9.5625 22.4375 C4.66377001 19.57990751 1.76903473 15.3071042 0 10 C-0.13143471 6.66155835 -0.04340976 3.34255132 0 0 Z"/>
<path transform="translate(184,192)" fill="#EF05BF" d="M0 0 C0 24.75 0 49.5 0 75 C-2.97 75 -5.94 75 -9 75 C-10.79438889 73.20561111 -10.13701924 70.5124845 -10.14526367 68.09082031 C-10.15164352 66.82570618 -10.15802338 65.56059204 -10.16459656 64.25714111 C-10.16612561 62.86413613 -10.16723937 61.47113063 -10.16796875 60.078125 C-10.17118061 58.65663621 -10.17454463 57.23514775 -10.17805481 55.81365967 C-10.18405434 52.82758824 -10.185894 49.84154578 -10.18530273 46.85546875 C-10.18520136 43.03441419 -10.19882369 39.21354651 -10.21607494 35.39253616 C-10.22721394 32.45338087 -10.22922132 29.51427037 -10.22869301 26.57509613 C-10.22987141 25.16693226 -10.23428536 23.75876717 -10.24202538 22.35062408 C-10.25185773 20.37602645 -10.2476746 18.4013742 -10.24291992 16.42675781 C-10.24434494 15.30392395 -10.24576996 14.18109009 -10.24723816 13.02423096 C-9.75735842 7.03199466 -6.81584127 0 0 0 Z"/>
<path transform="translate(325,192)" fill="#F601C4" d="M0 0 C3.54421231 0.71461685 5.71817213 1.7999607 7.99423218 4.74639893 C10.40575544 10.14984423 9.59351559 16.63932307 9.48828125 22.4609375 C9.47894695 23.97692699 9.47183375 25.49293164 9.46684265 27.00894165 C9.44782083 30.98445838 9.39876353 34.95905071 9.34332275 38.9342041 C9.29202504 42.99637347 9.2693063 47.05869332 9.24414062 51.12109375 C9.1906384 59.08115172 9.10538606 67.04046062 9 75 C2.84765625 75.09765625 2.84765625 75.09765625 1 75 C0 74 0 74 -0.12025452 71.07041931 C-0.11803391 69.75803787 -0.11581329 68.44565643 -0.11352539 67.09350586 C-0.11367142 66.37159561 -0.11381744 65.64968536 -0.1139679 64.90589905 C-0.11326869 62.50885053 -0.10547595 60.11187877 -0.09765625 57.71484375 C-0.0957921 56.05717511 -0.09436818 54.39950593 -0.09336853 52.74183655 C-0.08954312 48.37045786 -0.07971265 43.99911219 -0.06866455 39.62774658 C-0.05845092 35.17045539 -0.05387101 30.71315889 -0.04882812 26.25585938 C-0.0380904 17.50389107 -0.02101371 8.75194964 0 0 Z"/>
<path transform="translate(293,320)" fill="#F701C4" d="M0 0 C2.875 2.5 2.875 2.5 5 5 C5.33 5.33 5.66 5.66 6 6 C6.53718586 10.07493843 6.91195544 14.23242614 4.98828125 17.9609375 C2.84979723 20.59390581 1.23227732 21.92257423 -2 23 C-6.25160217 23.40109454 -8.5006973 23.26378256 -12.3125 21.25 C-16.15824916 18.03030303 -16.15824916 18.03030303 -17 15 C-17.33156904 10.82223011 -17.41180849 8.09008128 -15.9375 4.1875 C-11.50675377 -0.81495542 -6.26658887 -1.85676707 0 0 Z"/>
<path transform="translate(225,320)" fill="#F900C5" d="M0 0 C3.58968905 1.8809695 6.27696226 4.13122552 7.76171875 7.96875 C8.4060856 11.57166144 8.06282966 13.81500155 6.875 17.3125 C4.75851274 20.34613174 3.41912313 21.60126781 0 23 C-4.3558698 23.55438343 -6.43700886 23.30805175 -10.3125 21.1875 C-13.01651421 18.9865582 -14.81929682 17.44296805 -15.265625 13.87890625 C-15.26046875 13.11449219 -15.2553125 12.35007812 -15.25 11.5625 C-15.25515625 10.80066406 -15.2603125 10.03882813 -15.265625 9.25390625 C-14.83575084 5.60629757 -13.69815066 3.5749476 -10.875 1.25 C-7.13808885 -0.37474398 -3.95581427 -0.90482708 0 0 Z"/>
<path transform="translate(258,320)" fill="#F9DF01" d="M0 0 C3.47919245 1.12838674 5.19963559 2.82792938 7 6 C8.03689678 9.99945902 8.25753726 12.2703111 6.875 16.1875 C4.80248852 19.29626722 3.22277608 21.09563232 0 23 C-3.82985513 23.47873189 -6.20428349 23.34360486 -9.75 21.8125 C-12.38978907 19.68600325 -13.65317388 18.11896575 -15 15 C-15.53632889 9.99426368 -15.10708223 6.99482001 -12 3 C-8.53361259 -0.72315684 -4.78107891 -0.5619 0 0 Z"/>
<path transform="translate(260,185)" fill="#C0B7C7" d="M0 0 C0.33 0 0.66 0 1 0 C1.19992255 11.04783259 1.38367562 22.09580305 1.54658794 33.14424706 C1.6227411 38.27407264 1.70453576 43.40368078 1.79907227 48.53320312 C1.89004078 53.48025389 1.96638757 58.42733106 2.03244972 63.37477493 C2.06029596 65.26556487 2.09347786 67.15628376 2.13199425 69.04688644 C2.1849035 71.68800887 2.2191094 74.3287438 2.2487793 76.97021484 C2.26891586 77.75783707 2.28905243 78.54545929 2.30979919 79.35694885 C2.32279968 81.53256226 2.32279968 81.53256226 2 85 C0.515 85.99 0.515 85.99 -1 87 C-1.02314783 76.09957676 -1.04092758 65.19915934 -1.05181217 54.29871655 C-1.05703564 49.23746562 -1.06412361 44.17623149 -1.07543945 39.11499023 C-1.08628731 34.23263191 -1.09228089 29.35028975 -1.09487724 24.4679203 C-1.09672805 22.60316017 -1.10034211 20.73840095 -1.10573006 18.87364769 C-1.11296564 16.26625007 -1.11398987 13.65891968 -1.11352539 11.05151367 C-1.11712067 10.27683746 -1.12071594 9.50216125 -1.12442017 8.70401001 C-1.11828514 5.53125515 -1.01107343 3.0332203 0 0 Z"/>
<path transform="translate(195,183)" fill="#CCC3D3" d="M0 0 C0.33 0 0.66 0 1 0 C1.33 27.72 1.66 55.44 2 84 C0.515 84.495 0.515 84.495 -1 85 C-1.02314874 74.36034449 -1.04092805 63.72069495 -1.05181217 53.0810194 C-1.05703544 48.14083658 -1.06412304 43.20067097 -1.07543945 38.26049805 C-1.08628802 33.49484907 -1.09228104 28.72921666 -1.09487724 23.96355629 C-1.09672793 22.14345349 -1.10034173 20.32335161 -1.10573006 18.50325584 C-1.11296658 15.95812378 -1.11398983 13.41306058 -1.11352539 10.86791992 C-1.11712067 10.11194519 -1.12071594 9.35597046 -1.12442017 8.5770874 C-1.1182124 5.44271375 -0.99910474 2.99731423 0 0 Z"/>
<path transform="translate(313,183)" fill="#BEB5CC" d="M0 0 C2.14112022 4.28224044 2.2718408 7.26131507 2.22705078 11.88964844 C2.22734283 12.68027176 2.22763489 13.47089508 2.22793579 14.28547668 C2.22654467 16.8935552 2.21099379 19.50134651 2.1953125 22.109375 C2.19158159 23.91969649 2.18873499 25.73002 2.18673706 27.54034424 C2.17910672 32.30134675 2.15946334 37.06222692 2.1373291 41.82318115 C2.1168578 46.68288518 2.10773259 51.54260901 2.09765625 56.40234375 C2.07621691 65.93494953 2.04208815 75.46746459 2 85 C1.01 84.67 0.02 84.34 -1 84 C-0.67 56.28 -0.34 28.56 0 0 Z"/>


<path transform="translate(248,321)" fill="#EACE05" d="M0 0 C0.66 0 1.32 0 2 0 C0.9789841 2.19911116 -0.00382148 4.00458577 -1.5625 5.875 C-3.36384129 8.53785234 -3.64072241 10.83835725 -4 14 C-4.33 14 -4.66 14 -5 14 C-5.29557392 8.97524332 -5.0282379 6.07647409 -2 2 C-1.34 1.34 -0.68 0.68 0 0 Z"/>
<path transform="translate(203,175)" fill="#DBD6E2" d="M0 0 C0.66 0.33 1.32 0.66 2 1 C0.88121617 2.17262904 -0.24523051 3.33795138 -1.375 4.5 C-2.00148437 5.1496875 -2.62796875 5.799375 -3.2734375 6.46875 C-5 8 -5 8 -7 8 C-5.50902342 4.2047869 -3.24299151 2.38957269 0 0 Z"/>
<path transform="translate(268,176)" fill="#DBD6E3" d="M0 0 C0.66 0.33 1.32 0.66 2 1 C-0.64 3.64 -3.28 6.28 -6 9 C-6 6 -6 6 -3.5625 3.375 C-2.716875 2.59125 -1.87125 1.8075 -1 1 C-0.67 0.67 -0.34 0.34 0 0 Z"/>

</svg>